<svg width="60" height="60" viewBox="0 0 60 60" fill="none" xmlns="http://www.w3.org/2000/svg">
<path fill-rule="evenodd" clip-rule="evenodd" d="M57.7574 10.2426C60.1005 7.8995 60.1005 4.10051 57.7574 1.75736C55.4142 -0.585786 51.6152 -0.585786 49.2721 1.75736L29.0221 22.0074L10.2574 3.24264C7.91422 0.899498 4.11522 0.899496 1.77208 3.24264C-0.571068 5.58579 -0.571066 9.38478 1.77208 11.7279L20.5368 30.4926L1.75736 49.2721C-0.585786 51.6152 -0.585788 55.4142 1.75736 57.7574C4.1005 60.1005 7.8995 60.1005 10.2426 57.7574L29.0221 38.9779L48.2868 58.2426C50.6299 60.5858 54.4289 60.5858 56.7721 58.2426C59.1152 55.8995 59.1152 52.1005 56.7721 49.7574L37.5074 30.4926L57.7574 10.2426Z" fill="black"/>
</svg>
