<svg width="57" height="57" viewBox="0 0 57 57" fill="none" xmlns="http://www.w3.org/2000/svg">
<path fill-rule="evenodd" clip-rule="evenodd" d="M51.6508 56.1213C52.8223 57.2929 54.7218 57.2929 55.8934 56.1213C57.065 54.9497 57.065 53.0503 55.8934 51.8787L32.386 28.3713L52.636 8.12132C53.8076 6.94975 53.8076 5.05025 52.636 3.87868C51.4645 2.70711 49.565 2.70711 48.3934 3.87868L28.1434 24.1287L5.13604 1.12132C3.96447 -0.0502505 2.06497 -0.0502516 0.893398 1.12132C-0.278175 2.29289 -0.278174 4.19239 0.893398 5.36396L23.9008 28.3713L0.878678 51.3934C-0.292894 52.565 -0.292895 54.4645 0.878678 55.636C2.05025 56.8076 3.94975 56.8076 5.12132 55.636L28.1434 32.614L51.6508 56.1213Z" fill="black"/>
</svg>
